<?xml version="1.0" standalone="no"?>
<!DOCTYPE svg PUBLIC "-//W3C//DTD SVG 1.1//EN" "http://www.w3.org/Graphics/SVG/1.1/DTD/svg11.dtd" >
<svg xmlns="http://www.w3.org/2000/svg" xmlns:xlink="http://www.w3.org/1999/xlink" version="1.1">
<metadata></metadata>
<defs>
<font id="thaisans_neuebold" horiz-adv-x="985" >
<font-face units-per-em="2048" ascent="1552" descent="-496" />
<missing-glyph horiz-adv-x="790" />
<glyph horiz-adv-x="0" />
<glyph unicode="&#xd;" horiz-adv-x="790" />
<glyph unicode=" "  horiz-adv-x="790" />
<glyph unicode="&#x09;" horiz-adv-x="790" />
<glyph unicode="&#xa0;" horiz-adv-x="790" />
<glyph unicode="!" horiz-adv-x="394" d="M91 0v211h214v-211h-214zM91 340v992h214v-992h-214z" />
<glyph unicode="&#x22;" horiz-adv-x="714" d="M91 884v448h209v-448h-209zM415 884v448h209v-448h-209z" />
<glyph unicode="#" horiz-adv-x="1429" d="M91 356l49 188h186l52 188h-186l47 185h191l91 342h213l-92 -342h272l94 342h214l-94 -342h211l-51 -185h-209l-52 -188h211l-54 -188h-208l-96 -356h-212l96 356h-272l-98 -356h-212l95 356h-186zM541 544h273l51 188h-272z" />
<glyph unicode="$" horiz-adv-x="1034" d="M91 89v176q59 -30 123 -51q56 -20 124 -36t138 -16q136 0 195 62t59 147q0 73 -48 115t-118 71.5t-154 54t-153.5 66.5t-117.5 107.5t-48 175.5q0 64 26 116.5t71.5 93.5t106.5 67t130 38v189h209v-187q63 -7 111.5 -21t82.5 -28q40 -17 66 -35v-176q-47 21 -103 39 q-49 15 -116.5 27t-153.5 12q-35 0 -71.5 -10t-69.5 -28.5t-54 -43t-21 -53.5q0 -59 48 -93.5t118 -61.5t153.5 -55.5t153.5 -75t117.5 -117.5t47.5 -187q0 -64 -14.5 -125t-51.5 -112.5t-97 -90t-149 -53.5v-194h-206v182q-79 3 -139 19.5t-104 37.5q-51 24 -91 54z" />
<glyph unicode="%" horiz-adv-x="1473" d="M91 1052q0 174 74 278.5t199 104.5q120 0 191 -98.5t71 -267.5q0 -86 -19.5 -156.5t-56 -120.5t-87 -78.5t-111.5 -28.5q-123 0 -192 102t-69 265zM234 0l862 1534h234l-866 -1534h-230zM300 1057q0 -61 5 -98t13 -56t19.5 -25t23.5 -6t23.5 6t20 26t13 57t4.5 99 q0 115 -18 151.5t-43 36.5q-30 0 -45.5 -36.5t-15.5 -154.5zM848 324q0 174 72 282.5t203 108.5q118 0 189.5 -102t71.5 -271t-77.5 -271.5t-195.5 -102.5q-120 0 -191.5 97t-71.5 259zM1057 331q0 -98 15.5 -139.5t43.5 -41.5t46 40t18 141q0 197 -64 197q-28 0 -43.5 -44 t-15.5 -153z" />
<glyph unicode="&#x26;" horiz-adv-x="1426" d="M91 340q0 135 70.5 224.5t204.5 150.5q-56 37 -104 104.5t-48 160.5q0 66 27 122t76 96t115.5 62.5t144.5 22.5q71 0 134 -22.5t108.5 -60t72.5 -88t27 -106.5q0 -113 -58.5 -177.5t-166.5 -122.5q58 -40 98.5 -70.5t70 -60t54 -60.5t54.5 -70q66 118 91.5 215t30.5 191 l3 66h219q-5 -71 -21 -154t-43 -167.5t-66.5 -164t-88.5 -148.5q37 -47 92 -71.5t149 -24.5v-187q-256 0 -373 133q-94 -79 -198.5 -117t-239.5 -38q-96 0 -176 20.5t-137.5 65t-89.5 112.5t-32 164zM305 340q0 -57 19.5 -91.5t50.5 -53.5t70 -26t81 -7q108 0 174.5 29.5 t137.5 85.5q-38 52 -69.5 97.5t-68 86.5t-83.5 75t-113 64q-40 -19 -75 -39t-63.5 -50t-44.5 -70t-16 -101zM427 980q0 -63 31.5 -106.5t71.5 -69.5q94 40 135 88.5t41 99.5q0 47 -42 71.5t-87 24.5q-79 0 -114.5 -35t-35.5 -73z" />
<glyph unicode="'" horiz-adv-x="394" d="M91 884v448h214v-448h-214z" />
<glyph unicode="(" horiz-adv-x="606" d="M54 487q0 253 83.5 468t228.5 387h221q-145 -177 -237 -398.5t-92 -456.5q0 -248 93.5 -453.5t238.5 -377.5h-224q-155 184 -233.5 383.5t-78.5 447.5z" />
<glyph unicode=")" horiz-adv-x="606" d="M17 -344q145 171 237.5 379.5t92.5 448.5q0 248 -92.5 464.5t-237.5 393.5h222q145 -172 229.5 -387.5t84.5 -467.5q0 -255 -85 -462t-229 -369h-222z" />
<glyph unicode="*" horiz-adv-x="709" d="M91 973l199 103l-199 104l81 110l140 -132l-26 193h136l-28 -195l145 134l80 -110l-201 -104l201 -103l-80 -110l-145 134l28 -195h-136l26 193l-140 -132z" />
<glyph unicode="+" d="M91 438v186h307v319h189v-319h307v-186h-307v-290h-189v290h-307z" />
<glyph unicode="," horiz-adv-x="397" d="M-101 -268q52 35 96 78q35 40 65.5 94t30.5 124v174h216v-174q0 -74 -30.5 -129.5t-67.5 -92.5q-45 -45 -99 -74h-211z" />
<glyph unicode="-" horiz-adv-x="727" d="M91 467v177h545v-177h-545z" />
<glyph unicode="." horiz-adv-x="394" d="M91 0v202h214v-202h-214z" />
<glyph unicode="/" horiz-adv-x="652" d="M17 0l413 1534h206l-413 -1534h-206z" />
<glyph unicode="0" horiz-adv-x="1083" d="M54 605q0 159 35.5 286t99.5 214t153.5 133.5t198.5 46.5q103 0 192.5 -43t156 -125.5t103.5 -205.5t37 -280q0 -155 -39 -276t-108 -205t-163 -128t-202 -44q-208 0 -336 162t-128 465zM268 612q0 -125 22 -211.5t59 -139t83.5 -76t97.5 -23.5q52 0 103.5 24.5t91 78.5 t64.5 141.5t25 212.5q0 131 -25 220.5t-64.5 146t-90 82t-104.5 25.5q-49 0 -96.5 -25.5t-84.5 -82t-59 -148.5t-22 -225z" />
<glyph unicode="1" horiz-adv-x="628" d="M54 868v184q59 22 110.5 56t93.5 69q44 40 86 82h195v-1259h-215v973q-42 -27 -116.5 -58t-153.5 -47z" />
<glyph unicode="2" horiz-adv-x="898" d="M54 0v152q0 74 42 141.5t104.5 130.5t136 123t136 120t104.5 123t42 132q0 98 -55 134.5t-124 36.5q-39 0 -84.5 -7t-91.5 -22t-87 -35.5t-74 -50.5v180q52 54 139 90.5t198 36.5q89 0 161 -25.5t123.5 -71.5t80 -110.5t28.5 -141.5q0 -94 -34.5 -168t-88.5 -138.5 t-119 -118.5t-126.5 -105.5t-110.5 -104.5t-68 -114h596v-187h-828z" />
<glyph unicode="3" horiz-adv-x="924" d="M91 61v195q59 -50 141 -72t164 -22q40 0 86 10t84.5 30.5t64 55.5t25.5 86q0 57 -23 96t-75 64.5t-136.5 37t-207.5 11.5v184q110 -3 196 18q38 7 73 20t62 34t44.5 50.5t17.5 69.5q0 51 -15 83t-39.5 50.5t-55 24.5t-59.5 6q-86 0 -163.5 -19t-134.5 -61v181 q57 37 134.5 64t163.5 27q68 0 137 -22t123 -63.5t88.5 -101t34.5 -130.5q0 -140 -83.5 -214t-204.5 -95q59 -7 119.5 -29.5t108.5 -59.5t78.5 -91t30.5 -123q0 -169 -125.5 -273.5t-348.5 -104.5q-86 0 -169.5 27t-135.5 56z" />
<glyph unicode="4" horiz-adv-x="950" d="M17 288v169l567 802h200v-780h150v-191h-150v-288h-214v288h-553zM275 479h295v423z" />
<glyph unicode="5" horiz-adv-x="874" d="M91 37v204q35 -21 76 -39q35 -15 80.5 -26.5t94.5 -11.5q56 0 104 10.5t83.5 35t56.5 64.5t21 102q0 93 -60 162t-188 69q-57 0 -107 -6t-85 -11q-45 -9 -76 -18v687h646v-190h-432v-285h73q91 0 172 -25t141.5 -75t95 -124.5t34.5 -173.5q0 -184 -122 -296t-357 -112 q-86 0 -148.5 19.5t-102.5 39.5z" />
<glyph unicode="6" horiz-adv-x="960" d="M54 548q0 188 39.5 325t109 229t167 137.5t212.5 45.5q30 0 64 -2.5t69 -7t67 -10.5t53 -17v-188q-37 7 -78 16q-35 8 -80.5 12.5t-94.5 4.5q-140 -2 -216 -98.5t-89 -257.5q47 47 112.5 63t124.5 16q75 0 146.5 -30.5t125.5 -86t87.5 -131.5t33.5 -165 q0 -93 -33.5 -170.5t-90 -134t-135 -88.5t-167.5 -32q-91 0 -168 38t-135 110.5t-91 178t-33 243.5zM280 415q0 -68 18.5 -116t46.5 -78.5t64 -44.5t72 -14q37 0 74.5 16t68 47t50.5 76.5t20 101.5q0 64 -19 108.5t-48 70t-67.5 36.5t-78.5 11q-54 0 -91.5 -22.5t-62.5 -54 t-36 -68t-11 -69.5z" />
<glyph unicode="7" horiz-adv-x="889" d="M17 1069v190l855 -3v-74l-442 -1182h-221l405 1069h-597z" />
<glyph unicode="8" horiz-adv-x="936" d="M54 347q0 209 185 331q-71 52 -103.5 122t-32.5 146q0 66 26 126.5t74 108.5t115.5 76t148.5 28q75 0 143 -29.5t117 -77.5t77.5 -109t28.5 -123q0 -87 -35.5 -150.5t-99.5 -117.5q89 -54 136.5 -142t47.5 -189q0 -167 -109 -268t-301 -101q-204 0 -311 101t-107 268z M268 373q0 -110 60.5 -160.5t138.5 -50.5q79 0 140 49t61 160q0 93 -56 152t-145 59q-37 0 -72.5 -12t-64 -38t-45.5 -65.5t-17 -93.5zM317 931q0 -79 43 -119t107 -40q51 0 103 40.5t52 118.5q0 24 -10 54t-29.5 53.5t-48 39t-67.5 15.5q-45 0 -74 -15.5t-45.5 -40 t-23.5 -53.5t-7 -53z" />
<glyph unicode="9" horiz-adv-x="957" d="M54 858q0 96 34 174.5t92.5 135t134.5 87t161 30.5q99 0 177.5 -43t133.5 -120.5t86.5 -183.5t31.5 -237q0 -357 -144 -540t-405 -183q-56 0 -121.5 7.5t-109.5 24.5v189q30 -9 67 -19q32 -7 72.5 -12.5t89.5 -5.5q54 0 105.5 17.5t96 57.5t77.5 110.5t47 173.5 q-44 -47 -110 -62.5t-125 -15.5q-79 0 -150.5 33t-125.5 89.5t-84.5 131.5t-30.5 161zM265 858q0 -98 48 -165t163 -67q59 0 98.5 25t63 59.5t33 70t9.5 54.5q0 47 -10.5 94t-34 83.5t-63 58.5t-96.5 22q-49 0 -88 -22t-66 -55t-42 -75.5t-15 -82.5z" />
<glyph unicode=":" horiz-adv-x="394" d="M91 0v211h214v-211h-214zM91 703v211h214v-211h-214z" />
<glyph unicode=";" horiz-adv-x="397" d="M-101 -268q52 42 96 88q35 42 65.5 95t30.5 113v181h216v-181q0 -64 -30.5 -118.5t-67.5 -94.5q-45 -44 -99 -83h-211zM91 701v213h216v-213h-216z" />
<glyph unicode="&#x3c;" horiz-adv-x="952" d="M54 380v104l882 489v-213l-580 -326l580 -279v-207z" />
<glyph unicode="=" d="M91 270v185h803v-185h-803zM91 582v185h803v-185h-803z" />
<glyph unicode="&#x3e;" horiz-adv-x="952" d="M17 -52v207l581 279l-581 326v213l883 -489v-104z" />
<glyph unicode="?" horiz-adv-x="837" d="M91 983v177q24 35 69 62q37 24 94.5 43.5t141.5 19.5q68 0 131 -22t112 -61t79 -94.5t30 -122.5q0 -96 -47 -157t-102 -105.5t-101 -83.5t-46 -93v-206h-213v218q0 71 45 121.5t100.5 94.5t102 90t46.5 107q0 63 -42.5 92.5t-112.5 29.5q-66 0 -119 -18t-90 -38 q-44 -24 -78 -54zM239 0v211h213v-211h-213z" />
<glyph unicode="@" horiz-adv-x="1606" d="M91 487q0 145 60 271t161 221t234.5 149t281.5 54q143 0 268.5 -45.5t219 -126.5t147.5 -190.5t54 -237.5q0 -98 -32.5 -183t-83 -147t-115 -98t-130.5 -36q-101 0 -144.5 39.5t-62.5 102.5q-32 -58 -85 -100t-156 -42q-64 0 -123 23t-105 70t-73 115t-27 153 q0 89 35 162.5t91.5 125t125.5 80t140 28.5q68 0 128.5 -34.5t79.5 -76.5l21 99h176l-73 -403q-5 -52 0 -94q5 -35 17 -63t44 -28q49 0 87 32.5t64 77.5t39.5 99.5t13.5 97.5q0 71 -36 155t-103 155.5t-168 119.5t-234 48t-242.5 -55.5t-186.5 -139.5t-118.5 -186 t-41.5 -192q0 -98 36.5 -193t109 -170t177 -121.5t240.5 -46.5q96 0 187.5 22t166.5 50v-129q-84 -27 -173 -46.5t-181 -19.5q-148 0 -277 49.5t-225 136.5t-152.5 206t-56.5 262zM598 479q0 -52 13 -86t31.5 -52.5t39.5 -26t36 -7.5q49 0 83 22.5t55 59t29.5 84.5t8.5 99 q1 131 -97 131q-49 0 -86.5 -18.5t-63 -49t-37.5 -71.5t-12 -85z" />
<glyph unicode="A" horiz-adv-x="1159" d="M17 0l464 1259h195l466 -1259h-218l-118 314h-459l-121 -314h-209zM413 504h326l-159 462z" />
<glyph unicode="B" horiz-adv-x="1009" d="M91 0v1259h376q89 0 159 -23.5t119 -65.5t75 -98.5t26 -122.5q0 -61 -21 -109.5t-57 -84t-81 -55.5t-94 -27q56 -5 115 -24.5t105.5 -55t76 -90.5t29.5 -132q0 -89 -38.5 -157.5t-100.5 -116.5t-144.5 -72.5t-171.5 -24.5h-373zM305 187h145q115 0 185.5 53t70.5 131 q0 84 -64.5 141.5t-211.5 57.5h-125v-383zM305 760h103q103 0 163 40t60 124q0 44 -18 71t-46 44.5t-64 23.5t-73 6h-125v-309z" />
<glyph unicode="C" horiz-adv-x="1081" d="M54 617q0 150 48 274t132.5 211t199 135t249.5 48q122 0 222.5 -19.5t158.5 -46.5l-74 -185q-71 35 -149.5 47t-157.5 12q-111 0 -189.5 -46t-129 -116.5t-72.5 -155.5t-22 -158q0 -103 29.5 -186.5t84 -144t130.5 -92.5t169 -32t164.5 24.5t142.5 61.5l74 -182 q-70 -42 -175 -65t-223 -23q-138 0 -249.5 46.5t-192.5 131.5t-125.5 202.5t-44.5 258.5z" />
<glyph unicode="D" horiz-adv-x="1194" d="M91 0v1259h361q158 0 285.5 -36t217 -111t137.5 -191.5t48 -278.5q0 -150 -54 -269.5t-149 -203t-224 -126.5t-275 -43h-347zM305 187h133q118 0 208.5 34.5t153.5 94.5t94.5 144t31.5 182q0 206 -114 316.5t-360 110.5h-147v-882z" />
<glyph unicode="E" horiz-adv-x="886" d="M91 0v1259h706v-190h-492v-347h443v-189h-443v-346h492v-187h-706z" />
<glyph unicode="F" horiz-adv-x="812" d="M91 0v1259h706v-190h-492v-347h443v-189h-443v-533h-214z" />
<glyph unicode="G" horiz-adv-x="1218" d="M54 605q0 143 50.5 267.5t140.5 216t213.5 144t271.5 52.5q98 0 168 -14.5t117 -32.5q54 -19 89 -44v-206q-14 12 -48 30.5t-83 34.5t-117 28t-148 12q-110 0 -193 -43.5t-138 -114t-82 -158t-27 -172.5q0 -87 25.5 -166.5t77 -141t129 -98.5t183.5 -37q39 0 68.5 1 t55.5 6t51.5 14t55.5 21v283h-270v186h484v-597q-94 -54 -215.5 -76t-239.5 -22q-131 0 -243.5 44t-196 125t-131.5 197t-48 261z" />
<glyph unicode="H" horiz-adv-x="1156" d="M91 0v1259h214v-511h548l-2 511h216v-1259h-214v558h-548v-558h-214z" />
<glyph unicode="I" horiz-adv-x="394" d="M91 0v1259h214v-1259h-214z" />
<glyph unicode="J" horiz-adv-x="699" d="M17 28l74 164q19 -7 45 -16q19 -4 43.5 -9t52.5 -5q79 0 120.5 68t41.5 220v809h216v-809q0 -125 -32 -216t-85 -147.5t-124 -83.5t-151 -27q-46 0 -83 7t-64 17q-30 10 -54 28z" />
<glyph unicode="K" horiz-adv-x="1041" d="M91 0v1259h214v-544l440 544h258l-359 -450l381 -809h-228l-295 636l-197 -240v-396h-214z" />
<glyph unicode="L" horiz-adv-x="812" d="M91 0v1259h214v-1072h492v-187h-706z" />
<glyph unicode="M" horiz-adv-x="1501" d="M91 0v1259h251l397 -924l419 924h253v-1259h-215v865l-399 -865h-119l-373 853v-853h-214z" />
<glyph unicode="N" horiz-adv-x="1231" d="M91 0v1259h235l598 -924v924h216v-1259h-235l-600 912v-912h-214z" />
<glyph unicode="O" horiz-adv-x="1328" d="M54 612q0 150 42 274t122 212.5t192.5 137.5t257.5 49q141 0 252.5 -49t190 -135t122 -204t43.5 -259q0 -150 -43.5 -271t-123 -208.5t-196 -134t-264.5 -46.5q-138 0 -247 46.5t-186.5 130.5t-119.5 200.5t-42 256.5zM268 612q0 -110 30.5 -195.5t82 -142t120.5 -84.5 t148 -28q87 0 162.5 28t130.5 87.5t87.5 149t32.5 211.5q0 111 -30.5 197.5t-85 142.5t-124.5 85.5t-149 29.5q-86 0 -160.5 -29.5t-129 -89.5t-85 -151t-30.5 -211z" />
<glyph unicode="P" horiz-adv-x="948" d="M91 0v1259h359q96 0 177 -23.5t141 -72.5t93 -124t33 -176q0 -108 -36.5 -188t-100 -132.5t-151.5 -78.5t-191 -26h-110v-438h-214zM305 624h110q145 0 205 66.5t60 169.5q0 47 -8 85t-34 65t-70.5 43t-117.5 16h-145v-445z" />
<glyph unicode="Q" horiz-adv-x="1328" d="M54 612q0 150 43 274t123 212.5t190.5 137.5t245.5 49q143 0 258.5 -49t195 -135t123 -204t43.5 -259q0 -211 -82.5 -361t-215.5 -223q30 -12 64 -30.5t62.5 -45.5t47 -63.5t18.5 -83.5h-204q0 35 -16 60t-39.5 46t-52 35t-49.5 21q-40 -10 -86.5 -12.5t-91.5 -2.5 q-127 0 -234 46.5t-183 130.5t-118 200.5t-42 256.5zM268 612q0 -110 29 -195.5t79.5 -142t121 -84.5t151.5 -28q87 0 161 28t130.5 87.5t89 149t32.5 211.5q0 111 -30.5 197.5t-86.5 142.5t-129.5 85.5t-159.5 29.5q-79 0 -148.5 -29.5t-124 -89.5t-85 -151t-30.5 -211z " />
<glyph unicode="R" horiz-adv-x="1072" d="M91 0v1259h393q79 0 152.5 -22.5t131.5 -66.5t94 -112t36 -156q0 -63 -26 -114t-67 -87.5t-90 -57.5t-98 -29q56 -19 111.5 -97.5t111.5 -169.5l217 -347h-246l-187 310q-68 112 -127 155.5t-111 43.5h-81v-509h-214zM305 698l150 3q108 2 166.5 51.5t58.5 149.5 q0 71 -54 119t-171 48h-150v-371z" />
<glyph unicode="S" horiz-adv-x="1034" d="M91 89v181q49 -30 108 -54q49 -19 114 -35.5t137 -16.5q125 0 202.5 46t77.5 161q0 73 -48 116t-118 71.5t-154 53t-153.5 65.5t-117.5 107.5t-48 176.5q0 71 34.5 130t93 102t136 66.5t161.5 23.5q101 0 172.5 -13.5t117.5 -31.5q54 -19 88 -44v-184q-47 22 -106 42 q-49 15 -117.5 28t-154.5 13t-147.5 -37.5t-61.5 -94.5q0 -61 47 -96t118.5 -62t153.5 -54t153.5 -72.5t117.5 -117.5t46 -188q0 -82 -22.5 -152.5t-78.5 -124.5t-144 -85t-217 -31q-96 0 -168 17t-121 37q-59 24 -101 57z" />
<glyph unicode="T" horiz-adv-x="924" d="M17 1069v190h890v-190h-332v-1069h-214v1069h-344z" />
<glyph unicode="U" horiz-adv-x="1156" d="M91 484v775h214v-765q0 -184 67.5 -258t192.5 -74q59 0 110.5 16t91 53t63 97.5t23.5 150.5v780h214v-757q0 -275 -135 -399.5t-367 -124.5q-221 0 -347.5 121.5t-126.5 384.5z" />
<glyph unicode="V" horiz-adv-x="1159" d="M17 1259h217l346 -957l344 957h218l-466 -1259h-195z" />
<glyph unicode="W" horiz-adv-x="1670" d="M17 1259h217l258 -935l282 935h148l236 -930l280 930h216l-388 -1259h-224l-200 848l-240 -848h-224z" />
<glyph unicode="X" horiz-adv-x="1114" d="M17 0l413 629l-386 630h251l263 -445l288 445h252l-415 -630l415 -629h-252l-288 445l-290 -445h-251z" />
<glyph unicode="Y" horiz-adv-x="1051" d="M17 1259h222l275 -571l297 571h223l-415 -797v-462h-216v457z" />
<glyph unicode="Z" horiz-adv-x="1009" d="M17 0v79l659 990h-610v190h926v-82l-657 -990h633v-187h-951z" />
<glyph unicode="[" horiz-adv-x="547" d="M91 -344v1688h439v-186h-240v-1315h240v-187h-439z" />
<glyph unicode="\" horiz-adv-x="652" d="M17 1534h206l413 -1534h-206z" />
<glyph unicode="]" horiz-adv-x="547" d="M17 -157h241v1315h-241v186h440v-1688h-440v187z" />
<glyph unicode="^" horiz-adv-x="1220" d="M91 474l439 870h106l494 -870h-213l-330 572l-285 -572h-211z" />
<glyph unicode="_" d="M91 54h803v-174h-803v174z" />
<glyph unicode="`" horiz-adv-x="655" d="M91 1409h233l241 -328h-204z" />
<glyph unicode="a" horiz-adv-x="940" d="M91 760q28 51 76 96q42 34 112 65t178 31q76 0 147.5 -22.5t125.5 -67t87.5 -113.5t33.5 -159v-590h-204v125q-17 -19 -42 -44t-56 -47t-70 -36.5t-85 -14.5q-131 1 -218 77q-82 72 -82 189v14q2 81 35 130.5t80 77.5t101 37.5t100 9.5q64 0 109.5 5t73.5 12q32 10 51 21 q0 66 -16 109t-42 67.5t-61 34t-73 9.5q-75 0 -132 -24.5t-94 -50.5q-45 -33 -76 -75zM298 263q0 -69 44 -91t101 -22q56 0 115 29.5t89 71.5v150q-30 -7 -63 -15q-61 -12 -134 -13q-24 0 -51.5 -7t-50 -21t-36.5 -34.5t-14 -47.5z" />
<glyph unicode="b" horiz-adv-x="1058" d="M91 0v1332h202v-544q21 47 59 84q32 33 83.5 58.5t124.5 25.5q64 0 141.5 -28t145 -86t113.5 -146.5t46 -211.5q0 -136 -43.5 -230t-110 -153t-146.5 -86t-153 -27t-124 24.5t-80 55.5q-37 35 -56 82v-150h-202zM293 277q32 -32 73 -56q35 -22 80.5 -39.5t99.5 -17.5 q47 0 93 17.5t83.5 55.5t59.5 99.5t22 147.5q0 68 -23.5 122.5t-60.5 92.5t-82 59t-92 21q-54 0 -99.5 -18.5t-80.5 -40.5q-42 -28 -73 -56v-387z" />
<glyph unicode="c" horiz-adv-x="823" d="M54 445q0 113 36.5 206.5t102 159.5t151.5 103.5t184 37.5q56 0 105.5 -14t88.5 -28q45 -17 84 -40l-81 -174q-30 22 -59 38q-28 15 -62 28.5t-74 13.5q-63 0 -113.5 -28t-86 -73.5t-55 -105.5t-19.5 -124q0 -133 76 -208t201 -75q39 0 74 12.5t61 27.5q30 16 57 42 l81 -178q-42 -22 -88 -38q-42 -15 -92.5 -27.5t-102.5 -12.5q-96 0 -180.5 29.5t-150 87t-102 142t-36.5 198.5z" />
<glyph unicode="d" horiz-adv-x="1058" d="M54 484q0 112 42 200t104.5 146.5t137.5 90t138 31.5q74 0 128.5 -26t91.5 -56q42 -37 71 -82v544h201v-1332h-201v150q-28 -47 -69 -82q-34 -30 -87 -54t-127 -24t-150 31t-138.5 91t-102 153.5t-39.5 218.5zM256 484q0 -76 21 -136t54 -101t76 -63t90 -22 q63 0 113.5 17.5t85.5 38.5q42 28 71 59v387q-30 30 -69 56q-34 19 -84.5 37.5t-114.5 18.5q-47 0 -90 -23t-77 -62t-55 -92t-21 -115z" />
<glyph unicode="e" horiz-adv-x="933" d="M54 455q0 101 30.5 190t87 158t134 109t173.5 40q194 0 293.5 -123t104.5 -332l3 -99h-622q0 -105 71.5 -170.5t188.5 -65.5q66 0 112 14t73 30q33 20 54 45l71 -155q-37 -30 -86 -54q-42 -19 -102 -35.5t-136 -16.5q-98 0 -180.5 27t-143 85t-93.5 145.5t-33 207.5z M265 575h403q-2 73 -50 137t-139 64q-42 0 -78.5 -18.5t-65 -46.5t-47 -63.5t-23.5 -72.5z" />
<glyph unicode="f" horiz-adv-x="640" d="M17 742v177h157l2 101q3 71 18 132.5t48 106.5t85.5 71t134.5 26q42 0 74 -3.5t51 -8.5q24 -7 37 -12v-185q-17 7 -37 18q-17 5 -37 11t-41 6q-22 0 -45.5 -6t-42 -23.5t-31 -49t-12.5 -83.5v-101h246v-177h-246v-742h-202v742h-159z" />
<glyph unicode="g" horiz-adv-x="1058" d="M54 455q0 125 41 218.5t105.5 154.5t142 92.5t151.5 31.5t124 -26t85 -56q40 -37 64 -82l-3 150h204v-884q0 -253 -127.5 -368.5t-383.5 -115.5q-73 0 -133.5 17t-102.5 37q-49 24 -90 57l73 164q28 -27 64 -49q32 -19 79 -33t110 -14q64 0 120.5 12.5t98.5 43.5t66.5 85 t24.5 140v120q-24 -47 -61 -82q-33 -32 -83.5 -56t-123.5 -24t-152 29.5t-144 88t-107 146.5t-42 203zM256 455q0 -57 19.5 -109.5t52.5 -94.5t76.5 -66.5t89.5 -24.5q64 0 115.5 17t86.5 39q42 24 71 56v389q-30 30 -71 57q-35 19 -86.5 37.5t-115.5 18.5q-46 0 -89.5 -22 t-76.5 -63.5t-52.5 -101t-19.5 -132.5z" />
<glyph unicode="h" d="M91 0v1332h202v-568q24 52 61 94q32 35 79.5 64.5t114.5 29.5q89 0 155 -29t108 -76.5t62.5 -111.5t20.5 -135v-600h-200v607q0 66 -52 111.5t-145 45.5q-49 0 -86.5 -18.5t-63.5 -37.5q-30 -24 -54 -54v-654h-202z" />
<glyph unicode="i" horiz-adv-x="382" d="M91 0v938h202v-938h-202zM91 1072v199h202v-199h-202z" />
<glyph unicode="j" horiz-adv-x="382" d="M-258 -364l73 162q17 -14 35 -24q14 -9 33 -17t35 -8q74 0 123.5 56.5t49.5 206.5v926h202v-896q0 -211 -95 -340t-282 -129q-42 0 -74 9.5t-53 21.5q-28 12 -47 32zM91 1072v199h202v-199h-202z" />
<glyph unicode="k" horiz-adv-x="898" d="M91 0v1332h202v-818l333 412h237l-268 -328l282 -598h-204l-204 443l-176 -222v-221h-202z" />
<glyph unicode="l" horiz-adv-x="382" d="M91 0v1332h202v-1332h-202z" />
<glyph unicode="m" horiz-adv-x="1587" d="M91 0v938h202v-174q0 3 15.5 32.5t46.5 63.5t81.5 63t121.5 29q125 0 198.5 -61t108.5 -136q10 14 32 46t56.5 65.5t83.5 59.5t113 26q88 0 155 -30t108 -79t62 -112t21 -131v-600h-201v607q0 57 -48 107t-141 50q-46 0 -84.5 -18.5t-65.5 -37.5q-32 -24 -62 -54v-654 h-200v607q0 69 -52 112t-145 43q-45 0 -83 -17.5t-65 -36.5q-32 -24 -56 -54v-654h-202z" />
<glyph unicode="n" d="M91 0v938h202v-174q24 52 63 94q35 35 85.5 64.5t121.5 29.5q84 0 146.5 -30t103 -79t61 -112t20.5 -131v-600h-200l-4 607q0 59 -47.5 108t-133.5 49q-49 0 -90 -18.5t-67 -37.5q-33 -24 -59 -54v-654h-202z" />
<glyph unicode="o" horiz-adv-x="1032" d="M54 457q0 111 32 202t92.5 156t147.5 101t197 36q106 0 191 -36t144 -98.5t89.5 -150t30.5 -191.5q0 -223 -125.5 -355.5t-346.5 -132.5q-103 0 -186.5 34t-142.5 96t-91 149t-32 190zM256 457q0 -59 15 -113t45.5 -94.5t78.5 -64t111 -23.5q141 0 205.5 89t64.5 225 q0 62 -15.5 116.5t-46.5 94.5t-79 64.5t-112 24.5q-71 0 -121 -25.5t-82 -70t-48 -102t-16 -121.5z" />
<glyph unicode="p" horiz-adv-x="1058" d="M91 -391v1329h202v-150q30 45 68 82q35 30 80.5 56t106.5 26q89 0 171.5 -31.5t146 -92.5t102 -154.5t38.5 -218.5q0 -115 -43.5 -203t-109 -146.5t-140.5 -88t-138 -29.5q-73 0 -127 24.5t-89 55.5q-42 35 -66 82v-541h-202zM293 272q32 -32 73 -56q35 -22 84 -39 t110 -17q30 0 71.5 17t80 52.5t64.5 91t26 134.5q0 98 -27 159.5t-65.5 97.5t-83 49t-80.5 13q-54 0 -99.5 -18.5t-80.5 -37.5q-42 -28 -73 -57v-389z" />
<glyph unicode="q" horiz-adv-x="1058" d="M54 455q0 125 38.5 218.5t97 154.5t133.5 92.5t149 31.5q73 0 128.5 -26t93.5 -56q44 -37 73 -82v150h201v-1329h-201v541q-24 -47 -64 -82q-35 -32 -85 -56t-124 -24q-70 0 -149.5 29.5t-143 88t-105.5 146.5t-42 203zM256 455q0 -79 25.5 -134.5t63.5 -91t80 -52.5 t74 -17q57 0 107 17t84 39q42 24 77 56v389q-35 30 -77 57q-35 19 -81 37.5t-100 18.5q-33 0 -75.5 -13t-82 -49t-67.5 -97.5t-28 -159.5z" />
<glyph unicode="r" horiz-adv-x="621" d="M91 0v938h202v-255q21 73 54 135q27 50 68.5 93t100.5 43q14 0 30.5 -4t28.5 -9q14 -5 30 -10v-204q-17 5 -35 12q-14 5 -31.5 9t-36.5 4q-38 0 -75.5 -32t-67.5 -71q-35 -44 -66 -101v-548h-202z" />
<glyph unicode="s" horiz-adv-x="837" d="M91 49v174q35 -21 78 -36q37 -14 85 -25.5t105 -11.5q101 0 144 33t43 89q0 50 -33.5 78t-85 48t-109.5 37t-109.5 48t-84.5 79t-33 128q0 64 32 115t80 86t105.5 54t109.5 19q73 0 126.5 -13t86.5 -27q40 -17 67 -40v-169q-34 19 -79 37q-37 12 -88.5 24t-112.5 12 q-52 0 -88.5 -31.5t-36.5 -66.5q0 -40 33 -59t84.5 -35t109 -33t109 -52t85.5 -91t34 -148q0 -122 -96 -208t-284 -86q-56 0 -105 11t-89 23q-44 14 -83 37z" />
<glyph unicode="t" horiz-adv-x="640" d="M17 742v177h159l-2 413h204v-413h246v-177h-246v-418q0 -52 11.5 -83.5t28 -49t39 -23.5t45.5 -6q27 0 47.5 5t37.5 9q19 8 37 18v-182q-12 -7 -34 -12q-19 -5 -50 -7.5t-73 -2.5q-153 0 -223 93t-70 239v420h-157z" />
<glyph unicode="u" d="M91 340v598h202v-589q0 -89 57.5 -129t123.5 -40q49 0 88.5 17t68.5 39q35 24 63 57v645h200v-933h-200v169q-17 -52 -52 -90q-30 -35 -79 -62t-120 -27q-89 0 -155.5 28.5t-110.5 76.5t-65 109t-21 131z" />
<glyph unicode="v" horiz-adv-x="940" d="M17 938h231l233 -650l237 650h206l-331 -938h-220z" />
<glyph unicode="w" horiz-adv-x="1363" d="M17 938h229l162 -628l204 628h150l181 -628l185 628h218l-291 -938h-197l-175 607l-193 -607h-210z" />
<glyph unicode="x" horiz-adv-x="896" d="M17 0l318 469l-318 469h229l202 -302l204 302h228l-317 -481l317 -457h-228l-204 290l-204 -290h-227z" />
<glyph unicode="y" horiz-adv-x="997" d="M22 -368l72 162q19 -12 39 -22q17 -10 37 -16.5t39 -6.5q101 0 150 131l56 148l-393 910h219l282 -638l239 638h218l-429 -1090q-28 -66 -57.5 -118t-67 -88t-88 -52.5t-120.5 -16.5q-49 0 -85.5 8.5t-61.5 20.5q-28 12 -49 30z" />
<glyph unicode="z" horiz-adv-x="882" d="M91 0v82l472 682h-425v174h727v-87l-469 -677h462v-174h-767z" />
<glyph unicode="{" horiz-adv-x="579" d="M54 376v168q73 7 112.5 40t39.5 134v288q0 152 77.5 240t279.5 100v-186q-24 0 -50 -9t-48 -27t-37 -48t-15 -75v-295q0 -99 -53 -164.5t-139 -89.5q81 -19 136.5 -84.5t55.5 -168.5v-283q0 -52 15 -83.5t37 -48t49 -21t49 -4.5v-186q-185 0 -271 87t-86 239v293 q0 101 -39.5 137.5t-112.5 46.5z" />
<glyph unicode="|" horiz-adv-x="385" d="M91 -307v1772h204v-1772h-204z" />
<glyph unicode="}" horiz-adv-x="579" d="M17 -241q21 0 49 4.5t50 21t36.5 48t14.5 83.5v283q0 103 55 168t137 85q-87 24 -139.5 89.5t-52.5 164.5v295q0 47 -14.5 76t-36.5 47t-48 27t-51 9v186q201 -12 278.5 -100t77.5 -240v-288q0 -101 39.5 -134t113.5 -40v-168q-74 -10 -113.5 -46.5t-39.5 -137.5v-293 q0 -152 -85.5 -239t-270.5 -87v186z" />
<glyph unicode="~" horiz-adv-x="982" d="M91 406q0 49 13.5 100.5t40.5 91.5t71 66t108 26q54 0 97 -19t80.5 -42.5t73 -43.5t74.5 -20q40 0 54.5 30.5t18.5 94.5h170q-3 -59 -16 -110.5t-41.5 -90.5t-71.5 -61t-102 -22t-105.5 19.5t-85 42t-71.5 41.5t-64 19q-42 0 -59.5 -28t-17.5 -94h-167z" />
<glyph unicode="&#xa9;" horiz-adv-x="1614" d="M91 595q0 150 56.5 280.5t153.5 227t227.5 152t280.5 55.5t280 -55.5t227.5 -152t152.5 -227t55 -280.5t-55 -280t-152.5 -226t-227.5 -151.5t-280 -55.5t-280.5 55.5t-227.5 151.5t-153.5 226t-56.5 280zM192 593q0 -127 48 -239.5t131.5 -195t196 -130t241.5 -47.5 q127 0 240.5 47.5t197 130t131.5 194t48 240.5q0 127 -48 240t-131.5 197t-197 132t-240.5 48t-240.5 -48t-197 -132t-131.5 -197t-48 -240zM389 582q0 106 31.5 191t89.5 145t137.5 92t178.5 32q56 0 126 -8.5t115 -25.5l-37 -77q-45 19 -99 27t-103 8q-82 0 -145.5 -30.5 t-108 -83.5t-67.5 -123t-23 -147q0 -162 91 -269t253 -107q64 0 108 13t94 39l34 -78q-49 -28 -115.5 -40.5t-132.5 -12.5q-194 0 -310.5 123t-116.5 332z" />
<glyph unicode="&#xad;" horiz-adv-x="727" d="M91 467v177h545v-177h-545z" />
<glyph unicode="&#xae;" horiz-adv-x="1614" d="M91 595q0 150 56.5 280.5t153.5 227t227.5 152t280.5 55.5t280 -55.5t227.5 -152t152.5 -227t55 -280.5t-55 -280t-152.5 -226t-227.5 -151.5t-280 -55.5t-280.5 55.5t-227.5 151.5t-153.5 226t-56.5 280zM192 593q0 -131 48 -242.5t131.5 -194.5t196 -130.5t241.5 -47.5 q127 0 240.5 47.5t197 130.5t131.5 194.5t48 242.5q0 127 -48 240t-131.5 197t-197 132t-240.5 48t-240.5 -48t-197 -132t-131.5 -197t-48 -240zM546 164v891h263q54 0 103 -15t85.5 -44.5t59 -74t22.5 -105.5q0 -59 -17.5 -101t-47 -70t-67 -44.5t-79.5 -23.5 q44 -24 84 -63.5t61 -73.5l169 -276h-115l-150 251q-40 64 -96.5 100t-90.5 36h-88v-387h-96zM642 629h118q44 0 84 11.5t71 34.5t50.5 57.5t19.5 83.5q0 73 -52.5 115t-146.5 42h-144v-344z" />
<glyph unicode="&#xbc;" horiz-adv-x="1820" d="M108 1304v101q32 12 60.5 30.5t49.5 39.5q28 21 47 44h106v-689h-115v532q-22 -12 -64 -29.5t-84 -28.5zM378 0l905 1534h209l-908 -1534h-206zM1266 251v93l310 437h108v-427h80v-103h-80v-157h-118v157h-300zM1405 354h161v230z" />
<glyph unicode="&#xbd;" horiz-adv-x="1848" d="M108 1304v101q32 12 60.5 30.5t49.5 39.5q28 21 47 44h106v-689h-115v532q-22 -12 -64 -29.5t-84 -28.5zM378 0l905 1534h209l-908 -1534h-206zM1313 94v82q0 62 49 116.5t108 105t108 100.5t49 107q0 56 -30.5 76t-70.5 20q-42 0 -96 -16.5t-91 -48.5v101q30 30 79.5 51 t107.5 21q99 0 159 -54t60 -141q0 -79 -41 -135.5t-93.5 -102t-103 -87t-67.5 -92.5h332v-103h-459z" />
<glyph unicode="&#xbe;" horiz-adv-x="1845" d="M91 877v106q35 -28 79 -40t88 -12q22 0 46.5 5t46.5 16.5t36 31t14 46.5q0 63 -54 89t-190 26v101q61 0 108 10q42 10 75 31t33 62q0 56 -29.5 73.5t-63.5 17.5q-101 0 -162 -44v98q32 19 73 34t89 15q37 0 75.5 -12t67.5 -34t48 -54t19 -71q0 -80 -46 -119t-113 -52 q66 -7 125.5 -48t59.5 -116q0 -94 -68 -150.5t-190 -56.5q-49 0 -94.5 15t-72.5 32zM403 0l905 1534h209l-907 -1534h-207zM1290 251v93l310 437h108v-427h81v-103h-81v-157h-118v157h-300zM1430 354h160v230z" />
<glyph unicode="&#x2000;" horiz-adv-x="771" />
<glyph unicode="&#x2001;" horiz-adv-x="1543" />
<glyph unicode="&#x2002;" horiz-adv-x="771" />
<glyph unicode="&#x2003;" horiz-adv-x="1543" />
<glyph unicode="&#x2004;" horiz-adv-x="514" />
<glyph unicode="&#x2005;" horiz-adv-x="385" />
<glyph unicode="&#x2006;" horiz-adv-x="257" />
<glyph unicode="&#x2007;" horiz-adv-x="257" />
<glyph unicode="&#x2008;" horiz-adv-x="192" />
<glyph unicode="&#x2009;" horiz-adv-x="308" />
<glyph unicode="&#x200a;" horiz-adv-x="85" />
<glyph unicode="&#x2010;" horiz-adv-x="727" d="M91 467v177h545v-177h-545z" />
<glyph unicode="&#x2011;" horiz-adv-x="727" d="M91 467v177h545v-177h-545z" />
<glyph unicode="&#x2012;" horiz-adv-x="727" d="M91 467v177h545v-177h-545z" />
<glyph unicode="&#x2013;" d="M91 467v177h803v-177h-803z" />
<glyph unicode="&#x2014;" horiz-adv-x="1452" d="M91 467v177h1271v-177h-1271z" />
<glyph unicode="&#x2018;" horiz-adv-x="394" d="M91 884v176q0 63 29.5 117t66.5 96q45 45 99 83h216q-54 -42 -99 -88q-37 -42 -67.5 -96t-30.5 -112v-176h-214z" />
<glyph unicode="&#x2019;" horiz-adv-x="397" d="M-101 884q52 42 96 89q35 42 65.5 96t30.5 113v174h216v-174q0 -64 -30.5 -116.5t-67.5 -94.5q-45 -47 -99 -87h-211z" />
<glyph unicode="&#x201c;" horiz-adv-x="714" d="M91 884v176q0 63 29.5 117t66.5 96q45 45 99 83h195q-51 -42 -90 -88q-35 -42 -63 -96t-28 -112v-176h-209zM415 884v176q0 63 32 117t71 96q45 45 106 83h197q-54 -42 -99 -88q-37 -42 -67.5 -96t-30.5 -112v-176h-209z" />
<glyph unicode="&#x201d;" horiz-adv-x="717" d="M-101 884q52 42 96 89q35 42 65.5 96t30.5 113v174h209v-174q0 -64 -33 -116.5t-73 -94.5q-44 -47 -103 -87h-192zM234 884q49 42 90 89q35 42 64.5 96t29.5 113v174h208v-174q0 -64 -30.5 -116.5t-67.5 -94.5q-44 -47 -98 -87h-196z" />
<glyph unicode="&#x2022;" horiz-adv-x="682" d="M91 558q0 54 20 99.5t54 80t81 54t98 19.5q52 0 97.5 -19.5t78.5 -54t53 -80t20 -99.5q0 -52 -20 -96t-53 -78.5t-78.5 -54t-97.5 -19.5q-51 0 -98 19.5t-81 54t-54 78.5t-20 96z" />
<glyph unicode="&#x2026;" horiz-adv-x="1426" d="M91 0v202h214v-202h-214zM607 0v202h214v-202h-214zM1123 0v202h214v-202h-214z" />
<glyph unicode="&#x202f;" horiz-adv-x="308" />
<glyph unicode="&#x205f;" horiz-adv-x="385" />
<glyph unicode="&#x20ac;" horiz-adv-x="1314" d="M91 401v155h123v61v36.5t2 36.5h-125v156h153q75 226 234.5 330t377.5 104q124 0 216.5 -17t151.5 -44l-74 -185q-71 35 -146 47t-153 12q-133 0 -231.5 -64.5t-143.5 -182.5h467v-156h-511q-2 -19 -3.5 -36.5t-1.5 -36.5v-32t3 -29h464v-155h-422q30 -64 72.5 -109.5 t93 -73.5t106 -42t107.5 -14q93 0 159 24.5t137 61.5l75 -182q-71 -42 -167 -65t-227 -23q-106 0 -200.5 28.5t-171 82.5t-131.5 132.5t-79 179.5h-155z" />
<glyph unicode="&#x2122;" horiz-adv-x="962" d="M91 1182v54h300v-54h-116v-376h-64v376h-120zM434 806v430h77l141 -329l152 329h68v-430h-54v332l-154 -332h-26l-141 332v-332h-63z" />
<glyph unicode="&#x25fc;" horiz-adv-x="933" d="M0 0v934h934v-934h-934z" />
</font>
</defs>
</svg>
