<?xml version="1.0" standalone="no"?>
<!DOCTYPE svg PUBLIC "-//W3C//DTD SVG 1.1//EN" "http://www.w3.org/Graphics/SVG/1.1/DTD/svg11.dtd" >
<svg xmlns="http://www.w3.org/2000/svg" xmlns:xlink="http://www.w3.org/1999/xlink" version="1.1">
<metadata></metadata>
<defs>
<font id="thaisans_neuesemi_bold" horiz-adv-x="363" >
<font-face units-per-em="2048" ascent="1548" descent="-500" />
<missing-glyph horiz-adv-x="790" />
<glyph horiz-adv-x="0" />
<glyph unicode="&#xd;" horiz-adv-x="790" />
<glyph unicode=" "  horiz-adv-x="790" />
<glyph unicode="&#x09;" horiz-adv-x="790" />
<glyph unicode="&#xa0;" horiz-adv-x="790" />
<glyph unicode="!" d="M91 0v180h181v-180h-181zM91 317v987h181v-987h-181z" />
<glyph unicode="&#x22;" horiz-adv-x="657" d="M91 884v420h177v-420h-177zM389 884v420h179v-420h-179z" />
<glyph unicode="#" horiz-adv-x="1386" d="M91 359l42 152h186l59 223h-186l36 155h192l94 342h176l-92 -342h309l94 342h176l-93 -342h211l-42 -155h-211l-59 -223h211l-44 -152h-209l-95 -359h-178l96 359h-309l-96 -359h-177l95 359h-186zM497 511h309l59 223h-309z" />
<glyph unicode="$" horiz-adv-x="1002" d="M91 82v150q54 -30 115 -52q52 -19 118.5 -34t137.5 -15q136 0 202 62.5t66 162.5q0 80 -48 125t-118 74t-154 55t-153.5 64.5t-117.5 102t-48 169.5q0 63 27 116.5t74 91.5t107 62.5t126 33.5v188h175v-188q64 -4 113 -17.5t84 -25.5q39 -14 66 -32v-150q-42 19 -96 37 q-47 14 -112 27t-151 13q-40 0 -80.5 -11.5t-73.5 -32.5t-55.5 -49.5t-22.5 -59.5q0 -63 48 -101.5t118.5 -67t154 -55.5t153.5 -71t118 -114.5t48 -183.5q0 -63 -15 -123.5t-50.5 -111t-96 -85t-150.5 -48.5v-192h-175v182q-79 3 -141.5 18.5t-103.5 35.5q-49 22 -89 50z " />
<glyph unicode="%" horiz-adv-x="1442" d="M91 1037q0 174 70.5 273t187.5 99q111 0 178.5 -92.5t67.5 -261.5t-73.5 -267t-184.5 -98q-113 0 -179.5 92.5t-66.5 254.5zM246 0l845 1506h192l-843 -1506h-194zM268 1042q0 -64 6 -103t16 -60t24.5 -29t29.5 -8t28.5 8t24.5 30t18 61t7 103q0 127 -23 169.5t-55 42.5 q-34 0 -55 -42t-21 -172zM848 310q0 174 70 273.5t188 99.5q111 0 178 -93t67 -264q0 -169 -75 -263.5t-183 -94.5q-110 0 -177.5 90t-67.5 252zM1022 317q0 -118 22.5 -158.5t57.5 -40.5q34 0 56 40.5t22 160.5t-22.5 165.5t-55.5 45.5q-35 0 -57.5 -45t-22.5 -168z" />
<glyph unicode="&#x26;" horiz-adv-x="1395" d="M91 324q0 136 67.5 227t207.5 155q-56 37 -104 101.5t-48 158.5q0 66 27 120t72.5 91t109.5 58t137 21q66 0 125.5 -19.5t104.5 -55.5t71 -85.5t26 -105.5q0 -113 -62.5 -176.5t-175.5 -117.5q61 -37 107 -73t81 -72.5t62 -73.5t57 -76q71 115 103 226.5t37 205.5l2 56 h182q-7 -145 -65.5 -314t-157.5 -307q42 -52 98.5 -82.5t148.5 -30.5v-155q-124 0 -212.5 38t-145.5 102q-89 -81 -195.5 -121.5t-241.5 -40.5q-192 0 -305 82.5t-113 263.5zM272 324q0 -56 19 -94t52 -60t76 -30.5t92 -8.5q108 0 185.5 33t149.5 96q-37 52 -72 102.5 t-75 95t-90.5 82t-118.5 65.5q-50 -22 -89.5 -44t-67.5 -53.5t-44.5 -75t-16.5 -108.5zM396 966q0 -64 30.5 -112t84.5 -80q103 40 149 94t46 117q0 28 -15 49t-36 34t-47 20.5t-48 7.5q-84 0 -124 -40.5t-40 -89.5z" />
<glyph unicode="'" d="M91 884v420h181v-420h-181z" />
<glyph unicode="(" horiz-adv-x="552" d="M54 472q0 248 78.5 459t223.5 384h179q-145 -176 -227 -391.5t-82 -449.5q0 -241 82.5 -443.5t226.5 -374.5h-176q-150 171 -227.5 371.5t-77.5 444.5z" />
<glyph unicode=")" horiz-adv-x="552" d="M17 -344q145 171 228.5 374.5t83.5 441.5q0 243 -83.5 454.5t-228.5 388.5h180q145 -171 223.5 -383t78.5 -460q0 -246 -79.5 -450t-225.5 -366h-177z" />
<glyph unicode="*" horiz-adv-x="709" d="M91 959l199 103l-199 103l81 111l140 -134l-26 195h136l-28 -197l145 136l80 -111l-201 -103l201 -103l-80 -111l-145 135l28 -197h-136l26 194l-140 -132z" />
<glyph unicode="+" horiz-adv-x="952" d="M91 440v155h307v322h158v-322h307v-155h-307v-292h-158v292h-307z" />
<glyph unicode="," d="M-79 -268q47 40 84 83q32 40 59 90.5t27 106.5v162h181v-162q0 -64 -29 -115.5t-63 -88.5q-42 -44 -91 -76h-168z" />
<glyph unicode="-" horiz-adv-x="694" d="M91 467v150h514v-150h-514z" />
<glyph unicode="." d="M91 0v174h181v-174h-181z" />
<glyph unicode="/" horiz-adv-x="610" d="M17 0l403 1506h175l-405 -1506h-173z" />
<glyph unicode="0" horiz-adv-x="1051" d="M54 590q0 160 34 283.5t97 209t149 129.5t192 44q98 0 185.5 -40.5t150 -120.5t99 -200.5t36.5 -277.5q0 -155 -39 -274.5t-106.5 -200.5t-157 -122.5t-190.5 -41.5q-199 0 -324.5 155t-125.5 457zM236 598q0 -125 22 -215t60 -145.5t90 -81t108 -25.5q59 0 113 27 t96 83.5t66.5 147.5t24.5 216q0 131 -24.5 224t-66.5 154t-96 90t-113 29q-56 0 -108 -30t-90 -90t-60 -156t-22 -228z" />
<glyph unicode="1" horiz-adv-x="596" d="M54 875v155q56 21 108 54.5t91 68.5q45 37 84 78h169v-1231h-182v990q-42 -28 -116.5 -63t-153.5 -52z" />
<glyph unicode="2" horiz-adv-x="866" d="M54 0v133q0 73 42 140t104.5 129t136 122t136 122t104.5 126t42 135q0 108 -57.5 151.5t-136.5 43.5t-170 -29t-152 -85v152q52 54 135.5 85t186.5 31q167 0 272 -90t105 -244q0 -92 -37.5 -168t-95 -141t-126.5 -122t-130 -112t-108 -110t-59 -114h605v-155h-797z" />
<glyph unicode="3" horiz-adv-x="891" d="M91 54v162q59 -49 135 -67t157 -18q49 0 98 10.5t87.5 35.5t63 62.5t24.5 89.5q0 59 -23 102t-75 71t-136.5 42t-207.5 14v150q110 0 196 22q74 16 135.5 59.5t61.5 124.5q0 54 -15 89.5t-40.5 58t-57.5 31.5t-69 9q-76 0 -152 -19t-133 -61v153q57 37 128.5 59t156.5 22 q68 0 133.5 -22t117 -61.5t82 -96t30.5 -122.5q0 -133 -73 -207t-194 -105q59 -7 116 -31t102 -62t72 -89.5t27 -117.5q0 -169 -124 -266.5t-331 -97.5q-87 0 -163.5 23t-128.5 53z" />
<glyph unicode="4" horiz-adv-x="918" d="M17 290v148l560 793h175v-781h150v-160h-150l-2 -290h-180v290h-553zM226 450h344v493z" />
<glyph unicode="5" horiz-adv-x="842" d="M91 30v167q33 -19 71 -35q35 -12 78 -21.5t91 -9.5q125 0 200.5 54t75.5 176q0 108 -67.5 179.5t-195.5 71.5q-56 0 -103 -6t-81 -11q-40 -7 -69 -15v651h615v-155h-434v-321h82q194 0 314 -99.5t120 -284.5t-118.5 -289t-338.5 -104q-86 0 -143 16t-97 36z" />
<glyph unicode="6" horiz-adv-x="926" d="M54 541q0 357 141.5 536t372.5 179q56 0 122.5 -5t111.5 -25v-157q-33 7 -70 15q-32 4 -73.5 11t-90.5 7q-155 -3 -239.5 -114t-89.5 -303q44 61 117.5 81t133.5 20q75 0 145.5 -29.5t123 -82t83 -125.5t30.5 -160q0 -89 -30.5 -165t-85.5 -130t-129 -85t-163 -31 q-88 0 -164.5 38t-130.5 109.5t-84.5 177t-30.5 238.5zM246 406q0 -141 62.5 -208t155.5 -67q42 0 84 18t74 52.5t52 82t20 105.5q0 131 -65.5 188t-164.5 57q-58 0 -99 -25t-68 -59t-39 -73t-12 -71z" />
<glyph unicode="7" horiz-adv-x="854" d="M17 1076v155h821v-73l-437 -1158h-183l406 1076h-607z" />
<glyph unicode="8" horiz-adv-x="903" d="M54 331q0 108 48 192t151 141q-73 49 -111.5 118.5t-38.5 148.5q0 66 24.5 125.5t71.5 104t110.5 70t142.5 25.5q74 0 137 -27.5t111 -72.5t75 -104.5t27 -120.5q0 -86 -40 -152t-108 -115q96 -50 146.5 -141t50.5 -192q0 -167 -110 -260t-286 -93q-192 0 -296.5 93 t-104.5 260zM236 359q0 -111 60 -169.5t156 -58.5q94 0 155 57.5t61 167.5q0 94 -57.5 162.5t-158.5 68.5q-88 0 -152 -59t-64 -169zM286 917q0 -79 43.5 -127t122.5 -48q64 0 117 48t53 127q0 71 -46 128t-124 57q-46 0 -78 -16.5t-52 -42t-28 -58.5t-8 -68z" />
<glyph unicode="9" horiz-adv-x="926" d="M54 842q0 92 32 168t87 130t129 85t160 31q94 0 170 -40.5t129 -114.5t82 -179.5t29 -236.5q0 -351 -139.5 -529t-385.5 -178q-57 0 -117.5 5t-104.5 22v155q27 -8 62 -15q30 -5 70.5 -9.5t89.5 -4.5q135 0 229.5 100t108.5 315q-21 -30 -52 -50t-65.5 -30.5t-69 -15.5 t-64.5 -5q-79 0 -147.5 30.5t-120 83.5t-82 125.5t-30.5 157.5zM234 842q0 -112 56.5 -178t171.5 -66q59 0 101 25.5t67.5 60t37.5 72t12 65.5q0 115 -52.5 198t-165.5 83q-49 0 -91 -22.5t-72.5 -58.5t-47.5 -82.5t-17 -96.5z" />
<glyph unicode=":" d="M91 0v180h181v-180h-181zM91 708v179h181v-179h-181z" />
<glyph unicode=";" d="M-79 -268q47 42 84 88q32 40 59 90t27 102v164h181v-164q0 -59 -29 -109.5t-63 -89.5q-42 -45 -91 -81h-168zM91 708v179h181v-179h-181z" />
<glyph unicode="&#x3c;" horiz-adv-x="921" d="M54 376v84l851 474v-174l-603 -340l603 -293v-169z" />
<glyph unicode="=" horiz-adv-x="952" d="M91 283v151h772v-151h-772zM91 572v155h772v-155h-772z" />
<glyph unicode="&#x3e;" horiz-adv-x="921" d="M17 -42v169l600 293l-600 340v174l851 -474v-84z" />
<glyph unicode="?" horiz-adv-x="805" d="M91 995v150q24 30 66 54q35 19 90 38t133 19q64 0 124.5 -19.5t107.5 -57t75 -90t28 -118.5q0 -64 -22 -112t-54 -84t-71.5 -64t-71.5 -55t-54 -55.5t-22 -61.5v-222h-181v227q0 49 22 85.5t54 67t71 59t71.5 57.5t54 64t21.5 79q0 76 -46.5 109t-115.5 33 q-66 0 -117.5 -15.5t-89.5 -36.5q-44 -24 -73 -51zM239 0v180h181v-180h-181z" />
<glyph unicode="@" horiz-adv-x="1606" d="M91 472q0 145 60 271.5t161 221.5t234.5 149t281.5 54q143 0 268.5 -46t219 -127t147.5 -190t54 -237q0 -99 -32.5 -181t-84 -141t-116.5 -92.5t-131 -33.5q-101 0 -144 42t-55 126q-40 -79 -95 -123.5t-151 -44.5q-59 0 -116 21t-100.5 64t-69.5 108t-26 151 q0 87 34 158.5t89.5 123t125.5 81t141 29.5q68 0 121.5 -32.5t72.5 -73.5l21 98h157l-72 -403q-2 -51 5 -93q5 -35 20 -63.5t47 -28.5q52 0 91 32t66 77.5t40.5 99.5t13.5 99q0 70 -36 154t-103 155.5t-168 119t-234 47.5t-242.5 -55t-186.5 -138.5t-118.5 -185.5 t-41.5 -193q0 -99 36.5 -193t109 -169t177 -122t240.5 -47q96 0 187.5 22.5t166.5 48.5v-127q-84 -28 -173 -47.5t-181 -19.5q-148 0 -277 49t-225 136.5t-152.5 206.5t-56.5 262zM577 464q0 -54 14 -89t33.5 -57.5t42.5 -31.5t46 -9q103 0 150 78.5t47 224.5 q0 63 -29.5 95.5t-81.5 32.5q-98 0 -160 -66.5t-62 -177.5z" />
<glyph unicode="A" horiz-adv-x="1112" d="M17 0l455 1231h170l454 -1231h-182l-117 317h-485l-120 -317h-175zM366 472h376l-186 534z" />
<glyph unicode="B" horiz-adv-x="978" d="M91 0v1231h359q169 0 266.5 -84.5t97.5 -212.5q0 -111 -68 -184.5t-166 -93.5q58 -7 114 -29t98.5 -59.5t68.5 -90t26 -121.5q0 -81 -34.5 -147t-93 -113t-138.5 -71.5t-169 -24.5h-361zM272 155h166q118 0 193 57.5t75 143.5q0 96 -71.5 157.5t-219.5 61.5h-143v-420z M272 730h124q110 0 172.5 45.5t62.5 134.5q0 86 -61 126t-155 40h-143v-346z" />
<glyph unicode="C" horiz-adv-x="1044" d="M54 602q0 150 45.5 271.5t128 206.5t195 130.5t248.5 45.5q105 0 201 -15t155 -42l-61 -153q-71 35 -143.5 45.5t-151.5 10.5q-108 0 -189 -42t-136.5 -112.5t-82.5 -160t-27 -185.5q0 -108 31 -195.5t88.5 -148.5t137 -94t178.5 -33q93 0 157 21.5t136 58.5l61 -152 q-71 -42 -167 -61.5t-204 -19.5q-133 0 -243.5 45t-190.5 127t-123 197t-43 255z" />
<glyph unicode="D" horiz-adv-x="1161" d="M91 0v1231h349q315 0 492 -146.5t177 -458.5q0 -145 -51.5 -260t-143 -196t-217 -125.5t-272.5 -44.5h-334zM272 155h153q117 0 209.5 34t158 97t99.5 149t34 191q0 221 -121.5 335.5t-366.5 114.5h-166v-921z" />
<glyph unicode="E" horiz-adv-x="854" d="M91 0v1231h673v-155h-492v-382h443v-155h-443v-384h492v-155h-673z" />
<glyph unicode="F" horiz-adv-x="781" d="M91 0v1231h673v-155h-492v-382h443v-155h-443v-539h-181z" />
<glyph unicode="G" horiz-adv-x="1186" d="M54 590q0 143 49 265.5t137.5 211.5t209 139t265.5 50q94 0 161 -13.5t112 -28.5q49 -16 84 -39v-165q-8 8 -33.5 22t-72.5 29t-114.5 28t-155.5 13q-108 0 -193 -42t-144 -113.5t-91 -164t-32 -192.5t29.5 -185.5t85 -146.5t136.5 -94t186 -33q79 0 132 9.5t109 39.5 v310h-270v154h452v-576q-94 -51 -205.5 -70.5t-229.5 -19.5q-131 0 -241 43t-191 121.5t-128 193t-47 254.5z" />
<glyph unicode="H" horiz-adv-x="1124" d="M91 0v1231h181v-513h581v513h181v-1231h-181v563h-581l-2 -563h-179z" />
<glyph unicode="I" d="M91 0v1231h181v-1231h-181z" />
<glyph unicode="J" horiz-adv-x="660" d="M17 17l62 138q17 -7 39 -12q42 -12 91 -12q91 0 136.5 73t45.5 230v797h179v-797q0 -234 -104.5 -345t-261.5 -111q-47 0 -81 6t-59 14q-28 9 -47 19z" />
<glyph unicode="K" horiz-adv-x="997" d="M91 0v1231h181v-575l462 575h218l-345 -429l373 -802h-189l-304 654l-215 -268v-386h-181z" />
<glyph unicode="L" horiz-adv-x="781" d="M91 0v1231h181v-1076h492v-155h-673z" />
<glyph unicode="M" horiz-adv-x="1468" d="M91 0v1231h223l408 -954l431 954h226v-1231h-183v931l-427 -931h-96l-401 922v-922h-181z" />
<glyph unicode="N" horiz-adv-x="1198" d="M91 0v1231h209l626 -968v968h183v-1231h-211l-626 956v-956h-181z" />
<glyph unicode="O" horiz-adv-x="1297" d="M54 598q0 150 42 271t119.5 207.5t189 133t251.5 46.5q134 0 242 -46.5t185 -130.5t118.5 -199.5t41.5 -255.5q0 -150 -42.5 -270t-121 -204t-192 -128t-256.5 -44q-133 0 -238 44t-181 125t-117 195.5t-41 255.5zM236 598q0 -111 29.5 -198.5t82.5 -147.5t125 -90.5 t158 -30.5q96 0 174.5 31.5t135 93t89 154t32.5 214.5q0 110 -30.5 199t-85 150t-129.5 95t-161 34q-192 0 -306 -131t-114 -373z" />
<glyph unicode="P" horiz-adv-x="915" d="M91 0v1231h347q192 0 308.5 -96t116.5 -287q0 -98 -33 -174t-95 -128t-145.5 -79t-186.5 -27h-131l-2 -440h-179zM272 595h131q145 0 211 69.5t66 181.5q0 54 -10.5 96.5t-37.5 72t-74 45.5t-120 16h-166v-481z" />
<glyph unicode="Q" horiz-adv-x="1297" d="M54 598q0 150 42 271t119.5 207.5t186.5 133t247 46.5q136 0 246.5 -46.5t187.5 -130.5t118.5 -199.5t41.5 -255.5q0 -206 -78.5 -352.5t-210.5 -219.5q30 -12 62.5 -31t59 -46t43 -62t16.5 -82h-169q0 35 -18.5 61t-44.5 46t-55.5 35t-50.5 22q-40 -9 -84.5 -13 t-88.5 -4q-127 0 -232.5 44t-180.5 125t-116 195.5t-41 255.5zM236 598q0 -224 110.5 -345.5t287.5 -121.5q93 0 171.5 31.5t135 93t89 154t32.5 214.5q0 110 -30.5 199t-86.5 150t-131 95t-165 34q-91 0 -166 -34t-130 -98.5t-86 -158t-31 -213.5z" />
<glyph unicode="R" horiz-adv-x="1027" d="M91 0v1231h381q75 0 146.5 -22t126 -64.5t86.5 -107t32 -150.5q0 -64 -23.5 -113t-63 -85.5t-89 -60t-103.5 -33.5q57 -19 106 -91t98 -150l222 -354h-206l-199 322q-61 98 -116 145t-121 47h-96l-2 -514h-179zM272 668h171q108 0 172.5 55.5t64.5 163.5q0 84 -60 134.5 t-177 52.5l-171 2v-408z" />
<glyph unicode="S" horiz-adv-x="1002" d="M91 82v152q49 -30 108 -52q49 -19 114 -35t137 -16q131 0 205.5 55t74.5 170q0 80 -48 125t-118 74t-154 54t-153.5 64.5t-117.5 102t-48 170.5q0 70 34.5 128.5t92 99t131 61.5t153.5 21q93 0 161.5 -13.5t112.5 -28.5q52 -16 87 -39v-155q-42 22 -96 40 q-47 14 -113.5 28t-151.5 14q-42 0 -84 -11.5t-74 -32.5t-52 -49.5t-20 -62.5q0 -64 48 -102t118.5 -65t154 -54t153.5 -71t118 -114.5t48 -183.5q0 -75 -21 -144t-72.5 -120.5t-137.5 -82.5t-214 -31q-94 0 -162.5 16t-117.5 36q-56 22 -96 52z" />
<glyph unicode="T" horiz-adv-x="891" d="M17 1076v155h858v-155h-331v-1076h-183v1076h-344z" />
<glyph unicode="U" horiz-adv-x="1124" d="M91 469v762h181v-752q0 -185 68 -266.5t211 -81.5q135 0 218.5 76t83.5 257v767h181v-744q0 -265 -127.5 -387t-358.5 -122q-220 0 -338.5 119t-118.5 372z" />
<glyph unicode="V" horiz-adv-x="1112" d="M17 1231h182l357 -995l358 995h182l-454 -1231h-170z" />
<glyph unicode="W" horiz-adv-x="1626" d="M17 1231h182l270 -983l295 983h123l246 -980l295 980h181l-378 -1231h-199l-209 905l-255 -905h-197z" />
<glyph unicode="X" horiz-adv-x="1053" d="M17 0l403 614l-378 617h211l275 -462l298 462h211l-403 -617l403 -614h-211l-300 462l-298 -462h-211z" />
<glyph unicode="Y" horiz-adv-x="997" d="M17 1231h185l285 -593l307 593h186l-403 -781v-450h-181v445z" />
<glyph unicode="Z" horiz-adv-x="978" d="M17 0v59l673 1017h-624v155h895v-59l-675 -1017h648l2 -155h-919z" />
<glyph unicode="[" horiz-adv-x="516" d="M91 -344v1662h408v-153h-241v-1357h241v-152h-408z" />
<glyph unicode="\" horiz-adv-x="610" d="M17 1506h173l405 -1506h-175z" />
<glyph unicode="]" horiz-adv-x="516" d="M17 -192h241v1357h-241v153h408v-1662h-408v152z" />
<glyph unicode="^" horiz-adv-x="1166" d="M91 474l425 844h84l476 -844h-176l-342 595l-293 -595h-174z" />
<glyph unicode="_" horiz-adv-x="952" d="M91 28h772v-148h-772v148z" />
<glyph unicode="`" horiz-adv-x="589" d="M91 1381h192l216 -300h-164z" />
<glyph unicode="a" horiz-adv-x="903" d="M91 750q24 47 71 85q40 35 106.5 62t165.5 27q71 0 139.5 -20t122.5 -61t86 -108t32 -158v-577h-167v110q-35 -39 -99 -84t-157 -45q-131 -1 -217 69q-81 66 -80 184v14q2 82 35 130.5t80 77t101 38.5t100 10q64 0 109.5 5t73.5 12q32 9 51 20q0 136 -60.5 188t-151.5 52 q-76 0 -130 -24.5t-88 -53.5q-42 -35 -69 -77zM260 248q0 -79 52 -104.5t115 -25.5q64 0 127 34.5t93 75.5v182q-33 -9 -67 -16q-30 -5 -65.5 -10.5t-71.5 -5.5q-30 0 -63 -8.5t-59 -24.5t-43.5 -40.5t-17.5 -56.5z" />
<glyph unicode="b" horiz-adv-x="1027" d="M91 0v1304h169v-530q24 42 66 77q35 27 88 51t127 24q64 0 140 -27t141 -82t108 -141t43 -204q0 -131 -40.5 -221.5t-103 -148.5t-140 -85t-150.5 -27t-126.5 22.5t-88.5 48.5q-40 33 -64 75v-136h-169zM260 256q33 -38 77 -64q37 -24 87 -42.5t109 -18.5q47 0 95 18 t87.5 58.5t64 104.5t24.5 157q0 73 -24.5 131.5t-64 98.5t-87.5 61t-95 21q-59 0 -109.5 -19.5t-86.5 -41.5q-44 -28 -77 -61v-403z" />
<glyph unicode="c" horiz-adv-x="783" d="M54 430q0 110 35.5 202.5t98.5 156.5t146.5 99.5t181.5 35.5q52 0 97.5 -12t80.5 -25q39 -15 73 -34l-64 -143q-24 20 -54 35q-27 12 -60 24t-73 12q-64 0 -116.5 -27t-92 -73.5t-62 -110.5t-22.5 -140q0 -148 85.5 -223.5t209.5 -75.5q40 0 72 10.5t59 22.5q28 15 54 38 l64 -143q-35 -19 -77 -35q-35 -12 -82.5 -23t-98.5 -11q-96 0 -179.5 28.5t-144 85t-96 137.5t-35.5 189z" />
<glyph unicode="d" horiz-adv-x="1027" d="M54 472q0 112 42 198.5t104.5 142t136 83.5t137.5 28q73 0 127.5 -24.5t92.5 -51.5q44 -32 73 -74v530h169v-1304h-169v136q-30 -42 -71 -75q-37 -27 -91 -49t-129 -22q-73 0 -148 28.5t-136 87t-99.5 150t-38.5 216.5zM223 469q0 -86 23.5 -149.5t60.5 -105.5t84 -62.5 t93 -20.5q63 0 116.5 18t89.5 43q44 28 77 64v403q-33 35 -77 61q-37 22 -89.5 41.5t-116.5 19.5q-47 0 -93.5 -22t-83.5 -63.5t-60.5 -99t-23.5 -127.5z" />
<glyph unicode="e" horiz-adv-x="898" d="M54 440q0 101 30.5 189.5t84.5 153.5t129 103t166 38q183 0 282.5 -117t99.5 -326v-78h-623q0 -133 76.5 -202.5t197.5 -69.5q66 0 111.5 13t71.5 30q33 19 52 44l59 -134q-37 -28 -81 -47q-39 -19 -94.5 -33t-125.5 -14q-96 0 -176 26t-138 81t-90 140t-32 203zM228 546 h443q-5 101 -59 168t-148 67q-46 0 -86.5 -19.5t-71.5 -51.5t-51.5 -74.5t-26.5 -89.5z" />
<glyph unicode="f" horiz-adv-x="608" d="M17 745v144h159v117q0 142 59.5 233t204.5 91q42 0 71.5 -2.5t48.5 -7.5q22 -5 33 -10v-147q-15 5 -30 12q-15 5 -33.5 8.5t-42.5 3.5q-63 0 -103 -38t-40 -143v-117h249v-144h-246l-3 -745h-168v745h-159z" />
<glyph unicode="g" horiz-adv-x="1027" d="M54 440q0 125 39.5 216.5t101 151.5t137.5 88t149 28t128 -24.5t89 -51.5q42 -32 69 -74v138h169v-872q0 -246 -120 -356.5t-371 -110.5q-73 0 -130 14.5t-99 34.5q-47 22 -80 49l61 137q24 -28 61 -47q32 -19 77 -33t110 -14q148 0 235 65.5t87 234.5v122 q-28 -42 -69 -75q-34 -27 -87 -50t-127 -23q-69 0 -144 28t-138.5 83.5t-105.5 140t-42 200.5zM223 440q0 -66 23.5 -123t60.5 -99t82 -64.5t92 -22.5q64 0 117.5 18t89.5 43q44 28 79 61v403q-35 35 -79 62q-38 21 -90 41t-117 20q-47 0 -92 -21t-82 -62.5t-60.5 -105.5 t-23.5 -150z" />
<glyph unicode="h" horiz-adv-x="952" d="M91 0v1304h169v-554q24 47 62 85q32 35 81 62t120 27q89 0 154 -27t105.5 -72.5t60.5 -108t20 -132.5v-584h-169v593q0 79 -58.5 127.5t-151.5 48.5q-57 0 -99.5 -21t-70.5 -45q-32 -27 -54 -65v-638h-169z" />
<glyph unicode="i" horiz-adv-x="350" d="M91 0v912h169v-912h-169zM91 1046v168h169v-168h-169z" />
<glyph unicode="j" horiz-adv-x="350" d="M-253 -378l59 137q16 -12 34 -22q15 -7 32.5 -13.5t33.5 -6.5q84 0 134.5 65.5t50.5 217.5v912h169v-884q0 -212 -90.5 -333.5t-265.5 -121.5q-42 0 -70 7t-48 17q-24 9 -39 25zM91 1046v168h169v-168h-169z" />
<glyph unicode="k" horiz-adv-x="854" d="M91 0v1304h169v-852l354 442h195l-249 -307l273 -587h-165l-211 460l-197 -249v-211h-169z" />
<glyph unicode="l" horiz-adv-x="350" d="M91 0v1304h169v-1304h-169z" />
<glyph unicode="m" horiz-adv-x="1555" d="M91 0v912h169v-162q0 2 16.5 30.5t48 60t82 57.5t121.5 26q125 0 197 -54t105 -131q10 15 33.5 45t60.5 61.5t87.5 55t114.5 23.5q88 0 153 -27t106 -74t60.5 -108t19.5 -131v-584h-170v593q0 73 -55.5 124.5t-148.5 51.5q-57 0 -98 -21t-71 -45q-35 -27 -59 -65v-638 h-169v593q0 79 -58.5 127.5t-151.5 48.5q-57 0 -98.5 -21t-68.5 -45q-33 -27 -57 -65v-638h-169z" />
<glyph unicode="n" horiz-adv-x="952" d="M91 0v912h169v-162q22 47 62 85q32 35 83.5 62t122.5 27q89 0 151.5 -27t103 -74t60.5 -108t20 -131v-584h-169v593q0 73 -57 124.5t-145 51.5q-56 0 -99.5 -21t-73.5 -45q-35 -27 -59 -65v-638h-169z" />
<glyph unicode="o" horiz-adv-x="999" d="M54 443q0 223 119.5 352t332.5 129q101 0 182 -33t138.5 -95t88.5 -146.5t31 -187.5q0 -223 -121.5 -348.5t-334.5 -125.5q-99 0 -178.5 32t-138 90.5t-89 144t-30.5 188.5zM223 443q0 -138 68 -225t199 -87q140 0 213 89.5t73 241.5q0 140 -70 229.5t-200 89.5 q-140 0 -211.5 -94t-71.5 -244z" />
<glyph unicode="p" horiz-adv-x="1027" d="M91 -391v1303h169v-138q30 42 71 74q35 28 85.5 52t118.5 24q82 0 159.5 -28t140.5 -88t100.5 -151.5t37.5 -216.5q0 -115 -42 -200t-105.5 -140.5t-138.5 -83.5t-139 -28q-73 0 -128.5 23.5t-90.5 49.5q-42 33 -69 75v-527h-169zM260 253q33 -37 77 -63q37 -24 88 -43.5 t116 -19.5q37 0 83.5 20t86 59.5t66.5 97t27 136.5q0 99 -27 163.5t-68 104.5t-89 56.5t-87 16.5q-59 0 -108 -19.5t-85 -43.5q-45 -28 -80 -62v-403z" />
<glyph unicode="q" horiz-adv-x="1027" d="M54 440q0 125 38.5 216.5t97 151.5t133.5 88t149 28q73 0 128.5 -24.5t93.5 -51.5q44 -32 73 -74v138h169v-1303h-169v527q-28 -42 -69 -75q-34 -27 -88 -50t-129 -23q-66 0 -142 28t-138.5 83.5t-104.5 140t-42 200.5zM223 440q0 -79 27 -136.5t66.5 -97t85.5 -59.5 t85 -20q61 0 113 18.5t88 44.5q44 27 79 63v403q-37 35 -82 62q-37 24 -87 43.5t-108 19.5q-38 0 -84.5 -16.5t-87.5 -56.5t-68 -104.5t-27 -163.5z" />
<glyph unicode="r" horiz-adv-x="589" d="M91 0v912h169v-244q22 71 54 129q28 49 69.5 88t97.5 39q17 0 34.5 -2.5t30.5 -7.5q14 -4 26 -7v-168q-16 3 -31 9q-14 4 -30.5 6.5t-36.5 2.5q-37 0 -75 -36t-70 -77q-37 -49 -69 -111v-533h-169z" />
<glyph unicode="s" horiz-adv-x="805" d="M91 44v143q30 -19 71 -35q35 -12 81.5 -23t103.5 -11q199 0 199 140q0 56 -33.5 87t-85 52t-109.5 37t-109.5 44t-84.5 74t-33 124q0 58 29.5 106t75 83t101 53t106.5 18q69 0 119 -11t83 -23q37 -14 61 -34v-143q-30 19 -68 35q-35 12 -84.5 23t-110.5 11 q-56 0 -99.5 -36t-43.5 -82q0 -45 33 -67t85 -37.5t110 -33t109.5 -49.5t84.5 -86t33 -145q0 -56 -21 -106.5t-65.5 -90t-112.5 -61.5t-162 -22q-56 0 -104 10t-83 22q-42 14 -76 34z" />
<glyph unicode="t" horiz-adv-x="608" d="M17 745v144h159v415h171v-415h246v-144h-246v-435q0 -106 36.5 -142.5t97.5 -36.5q28 0 47.5 2.5t34.5 6.5q17 5 30 12v-147q-12 -5 -33 -7q-34 -8 -117 -8q-141 0 -204 87t-63 233v435h-159z" />
<glyph unicode="u" horiz-adv-x="952" d="M91 324v588h169v-586q0 -88 60 -134.5t142 -46.5q56 0 99.5 20t72.5 44q34 27 60 66v637h169v-910h-169v158q-20 -47 -58 -84q-32 -33 -82 -58t-122 -25q-89 0 -153.5 25.5t-106 71.5t-61.5 106t-20 128z" />
<glyph unicode="v" horiz-adv-x="891" d="M17 912h194l249 -689l246 689h169l-317 -912h-197z" />
<glyph unicode="w" horiz-adv-x="1318" d="M17 912h194l172 -678l222 678h122l197 -678l194 678h184l-280 -912h-174l-184 654l-207 -654h-187z" />
<glyph unicode="x" horiz-adv-x="835" d="M17 0l305 455l-305 457h187l214 -317l211 317h187l-305 -469l307 -443h-189l-211 305l-214 -305h-187z" />
<glyph unicode="y" horiz-adv-x="950" d="M19 -378l60 134q17 -12 34 -21q14 -7 34 -14t40 -7q54 0 90.5 27t64.5 99l71 174l-389 898h185l295 -668l246 668h184l-420 -1074q-28 -66 -56 -116.5t-65 -84t-85 -49t-116 -15.5q-44 0 -76 7t-55 17q-27 9 -42 25z" />
<glyph unicode="z" horiz-adv-x="849" d="M91 0v61l489 708h-442v143h695v-70l-484 -699h477v-143h-735z" />
<glyph unicode="{" horiz-adv-x="547" d="M54 376v138q73 7 112.5 47.5t39.5 141.5v287q0 155 74 237.5t250 90.5v-153q-61 -5 -106.5 -45.5t-45.5 -134.5v-295q0 -98 -44 -163t-130 -89q82 -19 128 -84.5t46 -168.5v-283q0 -106 43 -140t109 -34v-155q-166 0 -245 79.5t-79 232.5v291q0 101 -39.5 145.5 t-112.5 54.5z" />
<glyph unicode="|" horiz-adv-x="352" d="M91 -307v1745h172v-1745h-172z" />
<glyph unicode="}" horiz-adv-x="547" d="M17 -272q63 0 107.5 34t44.5 140v283q0 103 47 168t128 85q-86 24 -130.5 89.5t-44.5 162.5v295q0 94 -45 134.5t-107 45.5v153q174 -8 248.5 -90.5t74.5 -237.5v-287q0 -101 40 -141.5t114 -47.5v-138q-73 -10 -113.5 -54.5t-40.5 -145.5v-291q0 -153 -79 -232.5 t-244 -79.5v155z" />
<glyph unicode="~" horiz-adv-x="950" d="M91 406q0 49 13.5 95.5t40.5 82t67.5 58t97.5 22.5q51 0 93 -20t80 -44.5t75 -44.5t78 -20q79 0 86 129h138q-4 -118 -57 -188t-165 -70q-54 0 -97.5 19.5t-82 43t-72.5 42.5t-72 19q-46 0 -67 -29t-21 -95h-135z" />
<glyph unicode="&#xa9;" horiz-adv-x="1614" d="M91 595q0 150 56.5 280.5t153.5 227t227.5 152t280.5 55.5t280 -55.5t227.5 -152t152.5 -227t55 -280.5t-55 -280t-152.5 -226t-227.5 -151.5t-280 -55.5t-280.5 55.5t-227.5 151.5t-153.5 226t-56.5 280zM176 595q0 -131 49.5 -245t136 -199t201.5 -134t246 -49t246 49 t199.5 134t134 199t49.5 245t-49.5 245t-134 198.5t-200.5 134t-245 49.5q-131 0 -246 -49.5t-201.5 -134t-136 -198.5t-49.5 -245zM401 582q0 106 31.5 191t89.5 144t139 90.5t179 31.5q56 0 121.5 -7t110.5 -24l-33 -72q-44 19 -97 27t-102 8q-82 0 -146.5 -29.5 t-109.5 -82.5t-69.5 -124t-24.5 -153q0 -172 94 -275t256 -103q64 0 107 12t92 40l33 -76q-50 -28 -114 -37.5t-130 -9.5q-194 0 -310.5 120t-116.5 329z" />
<glyph unicode="&#xad;" horiz-adv-x="694" d="M91 467v150h514v-150h-514z" />
<glyph unicode="&#xae;" horiz-adv-x="1614" d="M91 595q0 150 56.5 280.5t153.5 227t227.5 152t280.5 55.5t280 -55.5t227.5 -152t152.5 -227t55 -280.5t-55 -280t-152.5 -226t-227.5 -151.5t-280 -55.5t-280.5 55.5t-227.5 151.5t-153.5 226t-56.5 280zM176 593q0 -131 49.5 -245t136 -199t201.5 -133t246 -48 q133 0 247 48t198.5 133t134 199t49.5 245q0 133 -49.5 247t-134 198.5t-199 134t-246.5 49.5q-131 0 -246 -49.5t-201.5 -134t-136 -198.5t-49.5 -247zM551 169v883h263q54 0 102 -15t84.5 -44t58.5 -73.5t22 -103.5t-17.5 -101t-46.5 -70t-68 -44.5t-81 -23.5 q44 -24 83 -63.5t59 -73.5l170 -271h-108l-150 246q-40 64 -96.5 102.5t-91.5 38.5h-92v-387h-91zM642 626h122q45 0 85 11.5t71.5 36t50.5 59t19 83.5q0 73 -53 117.5t-146 44.5h-149v-352z" />
<glyph unicode="&#xbc;" horiz-adv-x="1759" d="M108 1288v86q32 12 59 29.5t49 36.5q24 22 47 44h91v-675h-98v542q-22 -14 -64 -34t-84 -29zM383 0l895 1506h172l-894 -1506h-173zM1219 232v80l307 436h94v-431h83v-85h-83v-161h-98v161h-303zM1332 317h190v273z" />
<glyph unicode="&#xbd;" horiz-adv-x="1788" d="M108 1288v86q32 12 59 29.5t49 36.5q24 22 47 44h91v-675h-98v542q-22 -14 -64 -34t-84 -29zM383 0l895 1506h172l-894 -1506h-173zM1271 71v74q0 61 49 114t108 104.5t108 103t49 110.5q0 61 -31.5 84.5t-76.5 23.5q-42 0 -93.5 -14.5t-86.5 -48.5v86q64 64 180 64 q94 0 151.5 -50.5t57.5 -137.5q0 -75 -44.5 -132.5t-98.5 -105.5t-104.5 -92.5t-59.5 -96.5h333v-86h-441z" />
<glyph unicode="&#xbe;" horiz-adv-x="1771" d="M91 851v87q35 -27 75 -36.5t85 -9.5q54 0 102 25.5t48 83.5q0 63 -54 94t-187 31v84q58 2 105 12q42 9 75 31.5t33 68.5q0 59 -29.5 80t-68.5 21q-42 0 -83.5 -10t-73.5 -32v84q32 19 70 31t87 12q75 0 136 -46t61 -120q0 -71 -40.5 -112t-105.5 -58q64 -9 118.5 -51 t54.5 -113q0 -94 -67.5 -146.5t-180.5 -52.5q-47 0 -89 12t-71 30zM394 0l896 1506h173l-898 -1506h-171zM1231 232v80l307 436h94v-431h84v-85h-84v-161h-98v161h-303zM1344 317h190v273z" />
<glyph unicode="&#x2000;" horiz-adv-x="754" />
<glyph unicode="&#x2001;" horiz-adv-x="1508" />
<glyph unicode="&#x2002;" horiz-adv-x="754" />
<glyph unicode="&#x2003;" horiz-adv-x="1508" />
<glyph unicode="&#x2004;" horiz-adv-x="502" />
<glyph unicode="&#x2005;" horiz-adv-x="377" />
<glyph unicode="&#x2006;" horiz-adv-x="251" />
<glyph unicode="&#x2007;" horiz-adv-x="251" />
<glyph unicode="&#x2008;" horiz-adv-x="188" />
<glyph unicode="&#x2009;" horiz-adv-x="301" />
<glyph unicode="&#x200a;" horiz-adv-x="83" />
<glyph unicode="&#x2010;" horiz-adv-x="694" d="M91 467v150h514v-150h-514z" />
<glyph unicode="&#x2011;" horiz-adv-x="694" d="M91 467v150h514v-150h-514z" />
<glyph unicode="&#x2012;" horiz-adv-x="694" d="M91 467v150h514v-150h-514z" />
<glyph unicode="&#x2013;" horiz-adv-x="952" d="M91 467v150h772v-150h-772z" />
<glyph unicode="&#x2014;" horiz-adv-x="1419" d="M91 467v150h1239v-150h-1239z" />
<glyph unicode="&#x2018;" d="M91 884v160q0 59 28.5 111t62.5 91q40 44 90 84h171q-49 -42 -87 -89q-32 -42 -58 -92.5t-26 -104.5v-160h-181z" />
<glyph unicode="&#x2019;" d="M-79 884q47 42 84 89q32 42 59 91.5t27 103.5v162h181v-162q0 -59 -29 -110.5t-63 -91.5q-42 -44 -91 -82h-168z" />
<glyph unicode="&#x201c;" horiz-adv-x="657" d="M91 884v160q0 59 28.5 111t62.5 91q40 44 90 84h160q-47 -42 -83 -89q-32 -42 -56.5 -92.5t-24.5 -104.5v-160h-177zM389 884v160q0 59 29.5 111t62.5 91q42 44 96 84h160q-49 -42 -85 -89q-33 -42 -58.5 -92.5t-25.5 -104.5v-160h-179z" />
<glyph unicode="&#x201d;" horiz-adv-x="657" d="M-79 884q47 42 84 89q32 42 59 91.5t27 103.5v162h177v-162q0 -59 -31 -110.5t-65 -91.5q-42 -44 -93 -82h-158zM223 884q45 42 82 89q32 42 58 91.5t26 103.5v162h179v-162q0 -59 -29.5 -110.5t-64.5 -91.5q-42 -44 -91 -82h-160z" />
<glyph unicode="&#x2022;" horiz-adv-x="655" d="M91 546q0 103 68.5 170.5t169.5 67.5t168.5 -67.5t67.5 -170.5q0 -98 -67.5 -167t-168.5 -69t-169.5 69t-68.5 167z" />
<glyph unicode="&#x2026;" horiz-adv-x="1395" d="M91 0v174h181v-174h-181zM607 0v174h181v-174h-181zM1123 0v174h181v-174h-181z" />
<glyph unicode="&#x202f;" horiz-adv-x="301" />
<glyph unicode="&#x205f;" horiz-adv-x="377" />
<glyph unicode="&#x20ac;" horiz-adv-x="1274" d="M91 403v138h123v61v37t2 37h-125v140h150q64 216 220 326.5t374 110.5q111 0 201 -13.5t148 -40.5l-61 -155q-71 35 -140 46.5t-148 11.5q-147 0 -251.5 -76.5t-151.5 -209.5h480v-140h-514q-2 -20 -2 -37v-37v-31t2 -30h465v-138h-433q49 -138 160 -205t245 -67 q94 0 155.5 21.5t132.5 58.5l61 -152q-70 -42 -162.5 -61.5t-205.5 -19.5q-108 0 -201.5 28.5t-170 83.5t-129 133.5t-76.5 179.5h-148z" />
<glyph unicode="&#x2122;" horiz-adv-x="955" d="M91 1172v50h292v-50h-115v-375h-57v375h-120zM434 797v425h72l143 -338l153 338h63v-425h-47v338l-157 -338h-25l-146 338v-338h-56z" />
<glyph unicode="&#x25fc;" horiz-adv-x="908" d="M0 0v910h910v-910h-910z" />
</font>
</defs>
</svg>
